<?xml version='1.0' encoding='iso-8859-1'?>
<!-- Uploaded to: SVG Repo, www.svgrepo.com, Generator: SVG Repo Mixer Tools -->
<svg fill="#000000" height="800px" width="800px" version="1.1" xmlns="http://www.w3.org/2000/svg" viewBox="0 0 470 470" xmlns:xlink="http://www.w3.org/1999/xlink" enable-background="new 0 0 470 470">
  <g>
    <path d="m399,282.159c0-15.164-12.337-27.5-27.5-27.5s-27.5,12.336-27.5,27.5 12.337,27.5 27.5,27.5 27.5-12.337 27.5-27.5zm-27.5,12.5c-6.893,0-12.5-5.607-12.5-12.5s5.607-12.5 12.5-12.5 12.5,5.607 12.5,12.5-5.607,12.5-12.5,12.5z"/>
    <path d="M401.205,157.039c4.143,0,7.5-3.358,7.5-7.5s-3.357-7.5-7.5-7.5H242.5V67.207c0-4.142-3.357-7.5-7.5-7.5   s-7.5,3.358-7.5,7.5v74.832H68.796c-4.143,0-7.5,3.358-7.5,7.5s3.357,7.5,7.5,7.5H401.205z"/>
    <path d="m235,189.19c-22.1,0-40.079,17.979-40.079,40.079s17.979,40.08 40.079,40.08 40.079-17.979 40.079-40.079-17.979-40.08-40.079-40.08zm0,65.159c-13.829,0-25.079-11.25-25.079-25.079s11.25-25.08 25.079-25.08 25.079,11.25 25.079,25.079-11.25,25.08-25.079,25.08z"/>
    <path d="m98.5,254.659c-15.163,0-27.5,12.336-27.5,27.5s12.337,27.5 27.5,27.5 27.5-12.336 27.5-27.5-12.337-27.5-27.5-27.5zm0,40c-6.893,0-12.5-5.607-12.5-12.5s5.607-12.5 12.5-12.5 12.5,5.607 12.5,12.5-5.607,12.5-12.5,12.5z"/>
    <path d="m457.5,142.039h-20.686c-0.958-12.15-2.16-23.886-3.465-33.155l-10.24-72.723c-2.807-19.939-21.473-36.161-41.609-36.161h-293c-20.136,0-38.802,16.222-41.609,36.161l-10.24,72.723c-1.305,9.268-2.507,21.004-3.465,33.155h-20.686c-4.143,0-7.5,3.358-7.5,7.5s3.357,7.5 7.5,7.5h19.642c-0.716,11.877-1.142,23.349-1.142,32.5v168.195c-9.29,3.138-16,11.93-16,22.266v15c0,12.958 10.542,23.5 23.5,23.5h2.5v44c0,4.142 3.357,7.5 7.5,7.5h58.911c4.143,0 7.5-3.358 7.5-7.5v-21.5c0-4.142-3.357-7.5-7.5-7.5s-7.5,3.358-7.5,7.5v14h-43.911v-36.5h358v36.5h-43.911v-14c0-4.142-3.357-7.5-7.5-7.5s-7.5,3.358-7.5,7.5v21.5c0,4.142 3.357,7.5 7.5,7.5h58.911c4.143,0 7.5-3.358 7.5-7.5v-44h2.5c12.958,0 23.5-10.542 23.5-23.5v-15c0-10.336-6.71-19.128-16-22.266v-168.195c0-9.151-0.426-20.624-1.142-32.5h19.642c4.143,0 7.5-3.358 7.5-7.5s-3.357-7.5-7.5-7.5zm-369-127.039h293c9.7,0 19.117,6.187 23.838,14.707h-340.676c4.721-8.52 14.138-14.707 23.838-14.707zm-58.5,380v-15c0-4.687 3.813-8.5 8.5-8.5h72.5v32h-72.5c-4.687,0-8.5-3.813-8.5-8.5zm410,0c0,4.687-3.813,8.5-8.5,8.5h-72.5v-65.5c0-4.142-3.357-7.5-7.5-7.5s-7.5,3.358-7.5,7.5v18.5h-195.5c-4.143,0-7.5,3.358-7.5,7.5s3.357,7.5 7.5,7.5h195.5v32h-218v-65.5c0-4.142-3.357-7.5-7.5-7.5s-7.5,3.358-7.5,7.5v18.5h-65v-143.315c68.265,3.402 126.671,52.959 140.443,120.351 0.726,3.552 3.851,6 7.34,6 0.498,0 1.003-0.05 1.51-0.153 4.058-0.83 6.676-4.792 5.847-8.85-7.548-36.932-27.795-70.548-57.011-94.654-27.685-22.842-62.278-36.087-98.129-37.714v-8.626c0-21.766 2.469-57.01 5.504-78.563l9.331-66.269h348.329l9.332,66.269c3.035,21.553 5.504,56.797 5.504,78.563v8.626c-35.851,1.627-70.444,14.872-98.129,37.715-29.216,24.106-49.463,57.722-57.011,94.654-0.829,4.058 1.789,8.02 5.847,8.85 0.507,0.104 1.012,0.153 1.51,0.153 3.489,0 6.614-2.448 7.34-6 13.772-67.393 72.178-116.95 140.443-120.352v143.315h-42.5c-4.143,0-7.5,3.358-7.5,7.5s3.357,7.5 7.5,7.5h50c4.687,0 8.5,3.813 8.5,8.5v15z"/>
  </g>
</svg>